<?xml version="1.0" encoding="UTF-8"?>
<svg id="Ebene_1" xmlns="http://www.w3.org/2000/svg" version="1.1" viewBox="0 0 156 161">
  <defs>
    <style>
      .st0 {
        fill: #2627b6;
        fill-opacity: .8;
      }

      .st1 {
        fill: #f5f5f5;
      }

      .st2 {
        fill: #e836dc;
      }
    </style>
  </defs>
  <g>
    <path class="st0" d="M65.5,83c5.2,0,9.5,4.3,9.5,9.5s0,.3,0,.5c-.3,5-4.4,9-9.5,9s-9.5-4.2-9.5-9.5,4-9.2,9-9.5c.2,0,.3,0,.5,0Z"/>
    <path class="st0" d="M129,93c0,35.4-28.4,64-63.5,64S2,128.4,2,93,30.4,29,65.5,29s9.8.6,14.5,1.7v10.3c-4.6-1.3-9.5-2-14.5-2-29.5,0-53.5,24-53.5,53.5s24,53.5,53.5,53.5,53.5-23.9,53.5-53.5-.5-8.5-1.5-12.5h10.2c.9,4.2,1.3,8.6,1.3,13Z"/>
  </g>
  <path class="st1" d="M75,92.5c0,.2,0,.3,0,.5-.3,5-4.4,9-9.5,9s-9.5-4.2-9.5-9.5,4-9.2,9-9.5c.2,0,.3,0,.5,0,5.2,0,9.5,4.3,9.5,9.5Z"/>
  <path class="st0" d="M75,92.5c0,.2,0,.3,0,.5-.3,5-4.4,9-9.5,9s-9.5-4.2-9.5-9.5,4-9.2,9-9.5c.2,0,.3,0,.5,0,5.2,0,9.5,4.3,9.5,9.5Z"/>
  <path class="st2" d="M154,36c0,1.4-.6,2.6-1.5,3.5-.9.9-2.2,1.5-3.5,1.5h-22v22c0,2.1-1.3,3.9-3.2,4.7-.6.2-1.2.3-1.8.3-1.4,0-2.6-.6-3.5-1.5-.9-.9-1.5-2.2-1.5-3.5v-22h-22c-2.8,0-5-2.2-5-5s.1-1.3.4-1.9c.3-.6.6-1.2,1.1-1.6.9-.9,2.2-1.5,3.5-1.5h22V9c0-2.8,2.2-5,5-5s2.6.6,3.5,1.5c.9.9,1.5,2.2,1.5,3.5v22h22c2.8,0,5,2.2,5,5Z"/>
  <path class="st2" d="M110,89.5h-41.5v-26.5c0-1.9-1.6-3.5-3.5-3.5s-3.5,1.6-3.5,3.5v29.1c0,.2,0,.3,0,.4,0,.1,0,.3,0,.4,0,1.9,1.6,3.5,3.5,3.5h45c1.9,0,3.5-1.6,3.5-3.5s-1.6-3.5-3.5-3.5Z"/>
</svg>
